<svg xmlns="http://www.w3.org/2000/svg" version="1.1" xmlns:xlink="http://www.w3.org/1999/xlink" xmlns:svgjs="http://svgjs.dev/svgjs" width="1500" height="1500" viewBox="0 0 1500 1500"><rect width="1500" height="1500" fill="#282634"></rect><g transform="matrix(0.6666666666666666,0,0,0.6666666666666666,249.50000000000006,249.50000000000006)"><svg viewBox="0 0 280 280" data-background-color="#282634" preserveAspectRatio="xMidYMid meet" height="1500" width="1500" xmlns="http://www.w3.org/2000/svg" xmlns:xlink="http://www.w3.org/1999/xlink"><g id="tight-bounds" transform="matrix(1,0,0,1,0.13999999999998636,0.13999999999998636)"><svg viewBox="0 0 279.72 279.72" height="279.72" width="279.72"><g><svg viewBox="0 0 279.72 279.72" height="279.72" width="279.72"><g><svg viewBox="0 0 279.72 279.72" height="279.72" width="279.72"><g id="textblocktransform"><svg viewBox="0 0 279.72 279.72" height="279.72" width="279.72" id="textblock"><g><svg viewBox="0 0 279.72 279.72" height="279.72" width="279.72"><g transform="matrix(1,0,0,1,73.92936372216631,75.73100732396527)"><svg viewBox="0 0 131.8612725556674 128.25798535206948" height="128.25798535206948" width="131.8612725556674"><g id="icon-0"><svg xmlns="http://www.w3.org/2000/svg" xmlns:xlink="http://www.w3.org/1999/xlink" version="1.1" x="0" y="0" viewBox="0.3707861845197539 1.016 47.259427630960495 45.968" enable-background="new 0 0 48 48" xml:space="preserve" height="128.25798535206948" width="131.8612725556674" class="icon-jxe-0" data-fill-palette-color="accent" id="jxe-0"><g fill="#dcdcdc" data-fill-palette-color="accent"><path d="M30.993 46.984H17.005A1 1 0 0 1 16.005 45.984V37.539L8.608 41.616A1 1 0 0 1 7.25 41.222L0.495 28.974A1 1 0 0 1 0.888 27.616L7.857 23.771 1 19.733A0.997 0.997 0 0 1 0.645 18.364L7.742 6.309A1 1 0 0 1 9.112 5.954L16.006 10.014V2.016A1 1 0 0 1 17.006 1.016H30.994A1 1 0 0 1 31.994 2.016V10.462L39.391 6.385A1 1 0 0 1 40.749 6.778L47.506 19.026A1 1 0 0 1 47.113 20.384L40.143 24.229 46.998 28.269A1 1 0 0 1 47.352 29.638L40.253 41.693A1 1 0 0 1 39.642 42.153 1 1 0 0 1 38.884 42.047L31.992 37.986V45.984A1 1 0 0 1 30.993 46.984M18.005 44.984H29.993V36.236A1 1 0 0 1 31.501 35.375L39.038 39.816 45.122 29.485 37.617 25.062A0.999 0.999 0 0 1 37.642 23.326L45.272 19.117 39.48 8.619 31.475 13.031A1 1 0 0 1 29.993 12.155V3.016H18.005V11.763A0.999 0.999 0 0 1 16.498 12.625L8.959 8.185 2.875 18.517 10.382 22.937A1 1 0 0 1 10.358 24.675L2.729 28.884 8.519 39.382 16.523 34.97C16.833 34.8 17.211 34.806 17.515 34.985 17.819 35.166 18.006 35.493 18.006 35.846V44.984z" fill="#dcdcdc" data-fill-palette-color="accent"></path></g></svg></g></svg></g><g id="text-0"><path d="M12.699 76.829l27.059 7.622-1.143 2.925-8.169-2.483-13.507-3.69-0.113 0.289 15.062 14.22-1.048 2.684-20.575-0.116-0.128 0.326 12.188 6.353 7.901 3.883-1.081 2.767-24.996-12.905 1.446-3.699 4.502 0.214 17.052 0.145 0.094-0.242-12.764-11.83-3.211-2.802z" fill="#ff4057" data-fill-palette-color="primary"></path><path d="M57.23 58.41l3.839-4.353 0.374-0.02 1.637 1.956-9.034 9.657-4.696-4.571-11.178-10.278 9.095-9.723 0.341 0.017 1.663 1.926-3.875 3.895-3.074 3.343 4.78 4.54 2.982-3.129 2.501-2.864 0.377 0.051 1.7 1.946-2.842 2.848-2.738 3 2.135 2.052 3.059 2.806z" fill="#ff4057" data-fill-palette-color="primary"></path><path d="M79.632 19.398c2.941-1.528 5.603-1.907 7.986-1.138 2.38 0.763 4.334 2.615 5.861 5.556v0c1.758 3.385 2.254 6.423 1.487 9.113-0.764 2.696-2.735 4.869-5.912 6.52v0c-0.9 0.467-1.987 1.006-3.264 1.616-1.273 0.616-2.477 1.185-3.611 1.706v0l-2.904-5.874-7.114-13.415zM88.298 36.843c2.065-1.073 3.334-2.528 3.807-4.367 0.473-1.839 0.053-4.021-1.26-6.548v0c-1.288-2.48-2.77-4.039-4.447-4.679-1.677-0.639-3.587-0.403-5.729 0.71v0c-1.266 0.658-2.724 1.482-4.373 2.475v0l5.531 10.844 1.925 3.621c0.779-0.337 1.594-0.693 2.445-1.066 0.856-0.377 1.556-0.707 2.101-0.99z" fill="#ff4057" data-fill-palette-color="primary"></path><path d="M121.394 6.425l2.483 14.716 1.281 6.691-3.181 0.566-1.019-6.474-2.784-14.927z" fill="#ff4057" data-fill-palette-color="primary"></path><path d="M162.747 3.98l-4.862-0.54-1.332 9.642 4.661 0.695 4.52 0.456 0.213 0.38-0.65 2.599-4.784-0.752-4.38-0.528-0.506 3.586-0.955 8.682-3.501-0.455 1.302-8.324 2.298-19.421 14.76 1.915 0.213 0.381-0.657 2.729z" fill="#ff4057" data-fill-palette-color="primary"></path><path d="M198.058 39.358l0.024 0.353-1.228 2.121-10.488-4.869 2.877-5.888 6.276-13.827 2.967 1.377-6.402 13.482-1.629 3.721z" fill="#ff4057" data-fill-palette-color="primary"></path><path d="M235.205 44.17c2.311 2.176 3.447 4.524 3.409 7.045-0.038 2.52-1.225 5.021-3.561 7.501v0c-2.533 2.689-5.152 4.148-7.857 4.375-2.715 0.228-5.301-0.815-7.758-3.128v0c-2.291-2.158-3.407-4.519-3.347-7.082 0.055-2.568 1.29-5.134 3.704-7.697v0c2.473-2.626 5.052-4.027 7.735-4.202 2.679-0.17 5.237 0.893 7.675 3.188zM233.1 45.967c-1.675-1.577-3.368-2.274-5.08-2.091-1.712 0.183-3.537 1.304-5.475 3.363v0c-2.071 2.199-3.175 4.178-3.31 5.937-0.136 1.75 0.623 3.404 2.278 4.963v0c1.694 1.596 3.413 2.294 5.158 2.095 1.744-0.199 3.592-1.334 5.545-3.407v0c2.016-2.141 3.085-4.093 3.207-5.856 0.122-1.763-0.652-3.431-2.323-5.004z" fill="#ff4057" data-fill-palette-color="primary"></path><path d="M271.197 103.482l-23.167 1.249-1.395-3.201 9.174-8.669-0.104-0.238-12.683 0.618-1.395-3.2 17.084-15.205 1.307 2.999-1.958 1.29-12.362 11.193 0.088 0.202 13.544-0.721 4.249-3.794 1.359 3.117-2.165 1.468-12.123 11.089 0.104 0.238 16.681-0.833 2.491-0.518z" fill="#ff4057" data-fill-palette-color="primary"></path><path d="M3.261 142.833c0-5.903 4.785-10.688 10.687-10.687 5.903 0 10.688 4.785 10.688 10.687 0 5.903-4.785 10.688-10.688 10.688-5.903 0-10.688-4.785-10.687-10.688z" fill="#ff4057" data-fill-palette-color="primary"></path><path d="M255.084 142.833c0-5.903 4.785-10.688 10.688-10.687 5.903 0 10.688 4.785 10.687 10.687 0 5.903-4.785 10.688-10.687 10.688-5.903 0-10.688-4.785-10.688-10.688z" fill="#ff4057" data-fill-palette-color="primary"></path></g><g id="text-1"><path d="M39.263 183.711l-23.065 18.386-1.23-3.363 2.397-1.569 3.97-3.125-2.04-5.953-2.07-5.282-4.925-0.009-3.03 0.363-1.2-3.278 29.801 0.025zM21.985 187.433l1.81 4.685 11.394-9.004-0.107-0.291-14.693-0.015z" fill="#dcdcdc" data-fill-palette-color="secondary"></path><path d="M29.014 219.322l-0.182 0.303-2.219 1.039-5.825-9.989 5.725-3.188 13.052-7.761 1.647 2.825-12.957 7.406-3.463 2.124z" fill="#dcdcdc" data-fill-palette-color="secondary"></path><path d="M68.959 234.605l-21.344 9.094-2.405-2.53 5.657-11.283-0.179-0.189-11.708 4.917-2.405-2.53 10.856-20.129 2.254 2.371-1.4 1.881-7.789 14.745 0.151 0.16 12.482-5.308 2.689-5.025 2.349 2.472-1.532 2.119-7.602 14.566 0.18 0.188 15.384-6.493 2.17-1.331z" fill="#dcdcdc" data-fill-palette-color="secondary"></path><path d="M81.201 242.183l-5.202 22.446-2.769-1.759 0.826-2.272 0.778-3.333-4.369-2.822-3.923-2.444-2.637 1.951-1.872 1.809-2.727-1.732 18.728-13.855zM72.071 252.417l3.413 2.109 2.461-10.63-0.22-0.14-8.87 6.56z" fill="#dcdcdc" data-fill-palette-color="secondary"></path><path d="M93.457 263.838l-0.546 1.236-2.23 5.831-3.039-1.236 2.517-5.714 0.472-1.266-1.512-15.883 3.317 1.349-0.07 1.342 1.007 10.484 0.204 0.083 8.395-6.521 1.056-1.082 3.234 1.315z" fill="#dcdcdc" data-fill-palette-color="secondary"></path><path d="M149.403 258.565l-9.526 21.155-3.484-0.23-3.49-12.129-0.259-0.018-5.274 11.552-3.483-0.23-5.665-22.158 3.264 0.216 0.247 2.332 4.269 16.12 0.22 0.015 5.577-12.363-1.43-5.518 3.404 0.225 0.309 2.597 4.287 15.861 0.259 0.017 6.908-15.203 0.693-2.45z" fill="#dcdcdc" data-fill-palette-color="secondary"></path><path d="M158.393 257.279l1.556 14.843 0.859 6.758-3.211 0.365-0.61-6.524-1.844-15.073z" fill="#dcdcdc" data-fill-palette-color="secondary"></path><path d="M179.938 251.577l0.234 0.205 0.532 2.707-3.981 0.808-2.109 0.592 3.179 11.793 1.968 6.523-3.149 0.885-1.647-6.343-3.452-11.987-2.109 0.593-3.905 1.409-0.332-0.218-0.483-2.68z" fill="#dcdcdc" data-fill-palette-color="secondary"></path><path d="M202.194 240.787l6.474 13.448 3.089 6.072-2.899 1.427-2.776-5.936-1.344-2.639-10.599 5.262 1.139 2.405 3.089 6.072-2.899 1.426-2.776-5.936-6.823-13.566 2.935-1.444 4.045 8.422 5.304-2.566 5.313-2.66-4.206-8.342z" fill="#dcdcdc" data-fill-palette-color="secondary"></path><path d="M231.238 234.48l0.912 0.997 4.44 4.388-2.354 2.285-4.218-4.604-0.969-0.941-15.149-5.007 2.57-2.494 1.2 0.605 10.003 3.296 0.158-0.153-2.591-10.309-0.567-1.402 2.505-2.432z" fill="#dcdcdc" data-fill-palette-color="secondary"></path><path d="M234.504 207.862c1.835-2.59 4.003-4.041 6.505-4.353 2.501-0.312 5.142 0.517 7.922 2.487v0c3.014 2.136 4.82 4.53 5.416 7.184 0.606 2.652-0.067 5.355-2.018 8.108v0c-1.82 2.568-4.003 4-6.549 4.296-2.551 0.301-5.263-0.566-8.136-2.601v0c-2.944-2.086-4.688-4.445-5.233-7.079-0.54-2.63 0.158-5.31 2.093-8.042zM236.57 209.705c-1.326 1.872-1.78 3.643-1.361 5.313 0.419 1.67 1.782 3.322 4.088 4.956v0c2.465 1.746 4.578 2.565 6.339 2.456 1.752-0.108 3.285-1.089 4.599-2.945v0c1.345-1.899 1.799-3.698 1.361-5.398-0.438-1.7-1.819-3.373-4.143-5.019v0c-2.4-1.7-4.481-2.488-6.244-2.364-1.763 0.124-3.31 1.124-4.639 3.001z" fill="#dcdcdc" data-fill-palette-color="secondary"></path><path d="M249.857 178.394l10.073 4.528 2.879 1.254c2.279 0.963 3.74 2.418 4.384 4.363 0.644 1.946 0.397 4.224-0.739 6.835v0c-1.129 2.592-2.609 4.297-4.442 5.114-1.835 0.823-3.887 0.708-6.155-0.345v0l-3.029-1.363-9.976-4.3 1.306-2.999 12.46 5.611c1.668 0.763 3.116 0.895 4.344 0.397 1.234-0.495 2.229-1.611 2.985-3.348v0c0.743-1.706 0.878-3.185 0.405-4.439-0.467-1.25-1.547-2.226-3.242-2.928v0l-12.579-5.335z" fill="#dcdcdc" data-fill-palette-color="secondary"></path></g></svg></g></svg></g></svg></g></svg></g><defs></defs></svg><rect width="279.72" height="279.72" fill="none" stroke="none" visibility="hidden"></rect></g></svg></g></svg>